name C:\Users\u0150099\Documents\master_thesis\3dpredictsim\Results\debug\Fal_s1_mtjc2_sc_cspx10_oy2_TrackAnkleQSubtQ_ATx70_MTc2_MTPm_k1_d01_MTJm_nl_MG_exp5_table_d01_PF_Natali2010_ls146_FDB2_lTs125_Fpsl10_ig21_wAk5e+04_wa2e+03_wpMnD1e+03.mot
datacolumns 130
datarows 4
range 1.08182905 1.11428393
endheader
time	pelvis_tilt	pelvis_list	pelvis_rotation	pelvis_tx	pelvis_ty	pelvis_tz	hip_flexion_l	hip_adduction_l	hip_rotation_l	hip_flexion_r	hip_adduction_r	hip_rotation_r	knee_angle_l	knee_angle_r	ankle_angle_l	ankle_angle_r	subtalar_angle_l	subtalar_angle_r	mtj_angle_l	mtj_angle_r	mtp_angle_l	mtp_angle_r	lumbar_extension	lumbar_bending	lumbar_rotation	arm_flex_l	arm_add_l	arm_rot_l	arm_flex_r	arm_add_r	arm_rot_r	elbow_flex_l	elbow_flex_r	pro_sup_l	pro_sup_r	glut_med1_l/activation	glut_med2_l/activation	glut_med3_l/activation	glut_min1_l/activation	glut_min2_l/activation	glut_min3_l/activation	semimem_l/activation	semiten_l/activation	bifemlh_l/activation	bifemsh_l/activation	sar_l/activation	add_long_l/activation	add_brev_l/activation	add_mag1_l/activation	add_mag2_l/activation	add_mag3_l/activation	tfl_l/activation	pect_l/activation	grac_l/activation	glut_max1_l/activation	glut_max2_l/activation	glut_max3_l/activation	iliacus_l/activation	psoas_l/activation	quad_fem_l/activation	gem_l/activation	peri_l/activation	rect_fem_l/activation	vas_med_l/activation	vas_int_l/activation	vas_lat_l/activation	med_gas_l/activation	lat_gas_l/activation	soleus_l/activation	tib_post_l/activation	flex_dig_l/activation	flex_hal_l/activation	tib_ant_l/activation	per_brev_l/activation	per_long_l/activation	per_tert_l/activation	ext_dig_l/activation	ext_hal_l/activation	FDB_l/activation	ercspn_l/activation	intobl_l/activation	extobl_l/activation	glut_med1_r/activation	glut_med2_r/activation	glut_med3_r/activation	glut_min1_r/activation	glut_min2_r/activation	glut_min3_r/activation	semimem_r/activation	semiten_r/activation	bifemlh_r/activation	bifemsh_r/activation	sar_r/activation	add_long_r/activation	add_brev_r/activation	add_mag1_r/activation	add_mag2_r/activation	add_mag3_r/activation	tfl_r/activation	pect_r/activation	grac_r/activation	glut_max1_r/activation	glut_max2_r/activation	glut_max3_r/activation	iliacus_r/activation	psoas_r/activation	quad_fem_r/activation	gem_r/activation	peri_r/activation	rect_fem_r/activation	vas_med_r/activation	vas_int_r/activation	vas_lat_r/activation	med_gas_r/activation	lat_gas_r/activation	soleus_r/activation	tib_post_r/activation	flex_dig_r/activation	flex_hal_r/activation	tib_ant_r/activation	per_brev_r/activation	per_long_r/activation	per_tert_r/activation	ext_dig_r/activation	ext_hal_r/activation	FDB_r/activation	ercspn_r/activation	intobl_r/activation	extobl_r/activation	
          1.08182905	         -2.92445062	         -0.90298774	          4.35016667	          1.43883264	          0.91064849	         -0.00623755	        -17.16194148	          1.99241345	          7.62026943	         26.18398899	          2.07787170	         -3.59780487	         -9.66461411	         -4.70837554	          4.55896640	          1.53539621	          5.38846321	          0.03539583	         -1.05485199	          1.67444192	         17.37077364	         -2.02887978	         -3.78287017	          0.07042505	         -1.03655101	          0.42265006	        -15.40405528	         19.38771461	         -4.73644841	        -13.47296161	          6.30651834	         52.03103214	         25.45100209	         86.51662706	         86.51662706	          0.28780891	          0.09703910	          0.05901526	          0.47736742	          0.26320265	          0.11916848	          0.05000026	          0.05000003	          0.05000002	          0.07174146	          0.11453594	          0.05000002	          0.05000002	          0.05000004	          0.05000015	          0.05000007	          0.74724858	          0.05000015	          0.05000010	          0.05000092	          0.05000040	          0.05000018	          0.32891750	          0.80884478	          0.05000003	          0.05000022	          0.05612299	          0.38616639	          0.08188375	          0.08803102	          0.06745459	          0.42302741	          0.50839012	          0.30184101	          0.52695905	          0.54726404	          0.55984743	          0.05000000	          0.05000006	          0.35473023	          0.05000000	          0.05000000	          0.11454388	          0.68211559	          0.05000000	          0.05000000	          0.05000002	          0.06579395	          0.05000017	          0.05000026	          0.05000016	          0.05000018	          0.05000014	          0.19467129	          0.06965614	          0.38167894	          0.05000009	          0.05000013	          0.16418903	          0.13139841	          0.15398256	          0.18122823	          0.12144146	          0.05000006	          0.05297497	          0.17706511	          0.05629587	          0.05901515	          0.10106466	          0.05000003	          0.05000003	          0.12443641	          0.05000027	          0.05000006	          0.05000002	          0.05509752	          0.05538288	          0.05001550	          0.09957596	          0.08350735	          0.05000000	          0.06004117	          0.08157538	          0.08102719	          0.23595265	          0.11139022	          0.05572281	          0.22606067	          0.60706331	          0.25041195	          0.06453070	          0.05000001	          0.10232264	          0.09703914	
          1.09264735	         -2.92884273	         -1.06975018	          4.61680876	          1.45582336	          0.90980927	         -0.00597575	        -17.39476579	          1.59103788	          7.60049675	         25.72762096	          2.58947245	         -3.53579083	        -10.87930831	         -4.60839138	          3.58187842	          1.10215935	          5.64824297	         -0.13049389	         -2.14330189	          2.08424670	         20.37753598	         -3.08765640	         -3.62613064	          0.29965105	         -1.12710588	         -0.07492602	        -15.38245565	         19.33004317	         -5.59416243	        -13.45451421	          5.57006103	         53.95327683	         25.16100871	         86.51662706	         86.51662706	          0.24384287	          0.08221529	          0.05000002	          0.40444420	          0.22299549	          0.10096416	          0.05000030	          0.05000003	          0.05000002	          0.06078215	          0.09703931	          0.05000001	          0.05000001	          0.05000002	          0.05000010	          0.05000009	          0.72709530	          0.05000011	          0.05000003	          0.05000020	          0.05000012	          0.05000008	          0.27867166	          0.73712804	          0.05000000	          0.05000002	          0.05000000	          0.32717515	          0.11237969	          0.11348511	          0.09576182	          0.37995641	          0.47223309	          0.26835691	          0.46202816	          0.58841775	          0.47432448	          0.05000000	          0.06573997	          0.30054121	          0.05000000	          0.05000000	          0.09704602	          0.57791476	          0.05000000	          0.05000000	          0.09572605	          0.05901523	          0.05901523	          0.05000001	          0.05901523	          0.05901523	          0.05901520	          0.16493306	          0.05901540	          0.33639841	          0.05901524	          0.05000003	          0.19593536	          0.16683637	          0.13046015	          0.17485359	          0.11901622	          0.05000018	          0.05000213	          0.17647021	          0.05000005	          0.05000003	          0.09075976	          0.05000009	          0.05000004	          0.35204650	          0.05000017	          0.05000013	          0.05000000	          0.05000002	          0.05000002	          0.05000002	          0.09703907	          0.09703864	          0.05073170	          0.05086924	          0.06911384	          0.06864942	          0.26585294	          0.18229147	          0.06950502	          0.20901789	          0.64777604	          0.30670342	          0.11361650	          0.05000001	          0.08669170	          0.08221532	
          1.10346564	         -2.93016650	         -1.24967209	          4.85625328	          1.47308968	          0.90904789	         -0.00566296	        -17.54425315	          1.17562577	          7.54823021	         25.31639423	          3.07222466	         -3.48534960	        -12.19067351	         -5.22890313	          2.39168043	          0.31473499	          5.88614020	         -0.36209682	         -3.36015257	          2.51031182	         23.63329325	         -4.03604047	         -3.45750690	          0.54096930	         -1.21491516	         -0.62375742	        -15.32393644	         19.17983079	         -6.41892746	        -13.45104732	          5.11827233	         55.76541993	         24.76844256	         86.51662706	         86.51662706	          0.20659314	          0.06965599	          0.05901529	          0.34266081	          0.18893043	          0.08554076	          0.05000071	          0.05000006	          0.05000009	          0.05149700	          0.08221547	          0.17461933	          0.12001400	          0.05901556	          0.05901502	          0.05901528	          0.73159949	          0.05000041	          0.05000044	          0.05001772	          0.05695639	          0.05901524	          0.23610143	          0.62642773	          0.05901535	          0.05901548	          0.05901525	          0.27719547	          0.15954899	          0.15956165	          0.14443626	          0.32191388	          0.41425945	          0.22736237	          0.39144816	          0.51936772	          0.40186609	          0.05000000	          0.05569746	          0.25463016	          0.05000000	          0.05000000	          0.08222115	          0.48963178	          0.05739327	          0.07394015	          0.08110285	          0.05000000	          0.05000000	          0.16447913	          0.05000000	          0.05000000	          0.05000000	          0.13973768	          0.05000014	          0.28500977	          0.05000001	          0.08221515	          0.22262850	          0.35897436	          0.42007006	          0.21575183	          0.10083519	          0.05000001	          0.11462153	          0.14951244	          0.05901509	          0.05901525	          0.17647364	          0.05231989	          0.06965618	          0.62354973	          0.26271721	          0.15701397	          0.08221536	          0.16558057	          0.17697045	          0.11793924	          0.08221527	          0.08221515	          0.06965597	          0.05000000	          0.05855594	          0.05816252	          0.32649579	          0.16497125	          0.05888735	          0.54045205	          0.67491968	          0.44955159	          0.09626039	          0.05000000	          0.07344857	          0.06965601	
          1.11428393	         -2.92912221	         -1.47366732	          5.07140207	          1.49058046	          0.90839904	         -0.00536948	        -17.60424203	          0.72667825	          7.44490641	         24.86736553	          3.45245435	         -3.34002410	        -13.59297804	         -6.23251108	          1.00711283	         -0.57474701	          6.04667049	         -0.59305719	         -4.72812452	          2.73637720	         27.04049838	         -4.80935350	         -3.27565708	          0.83148622	         -1.29550719	         -1.21032031	        -15.21610815	         18.96733348	         -7.19448750	        -13.47643763	          4.94867886	         57.45197118	         24.24307076	         86.51662706	         86.51662706	          0.19013427	          0.05901525	          0.05000004	          0.29031555	          0.16006919	          0.07247345	          0.05000017	          0.05000006	          0.05000004	          0.05000026	          0.06965615	          0.16742058	          0.10168065	          0.05000033	          0.05000015	          0.05000009	          0.73331813	          0.06965591	          0.05000073	          0.05000034	          0.05000017	          0.05000016	          0.20003428	          0.64258385	          0.05000011	          0.05000023	          0.05000001	          0.23485075	          0.13517609	          0.13518682	          0.12237201	          0.27273792	          0.38240974	          0.19263021	          0.33165005	          0.44002848	          0.34047653	          0.09410297	          0.17307814	          0.21573254	          0.44806556	          0.05000000	          0.06966094	          0.41483502	          0.08321094	          0.06264496	          0.06871348	          0.38664717	          0.35728367	          0.37955504	          0.35164093	          0.15162725	          0.28017009	          0.15138451	          0.14232142	          0.25052338	          0.08221525	          0.06965593	          0.18861950	          0.30413700	          0.35589965	          0.18279333	          0.19985705	          0.05000008	          0.09711185	          0.12667278	          0.05000000	          0.05000002	          0.14951533	          0.05901526	          0.05901542	          0.52829550	          0.22258421	          0.13302848	          0.06965604	          0.14028628	          0.14993623	          0.09992270	          0.06965596	          0.06965586	          0.05901524	          0.05000004	          0.05901522	          0.05901522	          0.37329883	          0.13977008	          0.05000001	          0.49623575	          0.81113370	          0.68019858	          0.44860378	          0.05000001	          0.09703910	          0.05901527	
